<svg width="32" height="32" viewBox="0 0 32 32" fill="none" xmlns="http://www.w3.org/2000/svg">
<path d="M21.9404 28.0599L21.418 28.5L18.7205 28.4965C16.6369 28.4937 15.9807 28.4816 15.8379 28.4421C15.4249 28.3286 15.1617 28.0974 14.8091 27.5368C14.7024 27.3674 14.5239 27.0876 14.4125 26.9155C14.3011 26.7433 13.9222 26.1538 13.5704 25.6049C13.2189 25.0559 12.6314 24.1408 12.265 23.5704C11.8986 23 11.4189 22.252 11.1989 21.9077C10.9788 21.5634 10.5164 20.8412 10.1712 20.3028C9.82604 19.7641 9.52284 19.2844 9.49695 19.2367C9.47145 19.1886 9.43498 19.1495 9.41615 19.1495C9.39732 19.1495 9.20355 19.4249 8.98586 19.7617L8.59009 20.3744L8.59087 21.8451C8.59283 25.187 8.76032 26.8924 9.16511 27.6905C9.32711 28.0094 9.30867 28.0211 8.625 28.0368C8.11273 28.0485 8.03036 28.0591 7.99702 28.1185C7.96093 28.1831 7.72833 28.187 3.97929 28.187H0V27.7613L0.186315 27.7383C0.746828 27.669 1.01277 27.4914 1.23595 27.038C1.4003 26.7046 1.50189 26.2543 1.58544 25.4875C1.78352 23.6761 1.81451 22.0818 1.79333 14.7089C1.77489 8.4151 1.76156 7.74413 1.62506 6.37559C1.43992 4.51682 1.10612 3.93036 0.233384 3.93036H0.0784483V3.5H7.96642L7.95466 3.7054L7.94289 3.9108L7.69931 3.9374C7.25529 3.98631 6.9819 4.17293 6.78225 4.56299C6.57004 4.97809 6.37785 6.19014 6.32764 7.43036L6.30214 8.05477L6.98543 7.43114C7.90131 6.59468 9.353 5.27034 9.9951 4.68466C10.5493 4.17919 10.6176 4.14163 11.1593 4.04304C11.335 4.01095 13.8602 3.87989 17.4744 3.7144C18.1863 3.68192 19.3336 3.62246 20.0239 3.58255C20.7143 3.54225 21.2811 3.51174 21.2834 3.51448C21.2858 3.51721 21.2979 3.61072 21.3105 3.72183L21.3336 3.9241L21.0634 4.00587C20.6605 4.12793 19.991 4.47966 19.5925 4.77856C18.6832 5.46088 17.6058 6.68897 16.5361 8.26252L16.078 8.93623C16.078 8.93623 16.9138 9.93623 17.9356 11.1577C18.9574 12.3791 20.1392 13.7895 20.1392 13.7895C20.1392 13.7895 20.868 14.6581 21.3364 15.2175C21.8047 15.777 22.337 16.4108 22.519 16.626C22.701 16.8412 23.2195 17.4574 23.671 17.9953C25.7601 20.4844 26.0892 20.8682 26.277 21.0368C26.9639 21.6526 27.7193 21.5106 28.6336 20.5935C28.9694 20.2567 29.1424 19.9644 29.2573 19.5391C29.6107 18.2344 29.335 16.8173 28.4406 15.34C28.3312 15.1592 28.2414 14.9918 28.2414 14.9683C28.2414 14.9038 28.5532 14.7101 28.5897 14.7516C28.6073 14.7711 28.8854 15.1655 29.2087 15.6283C29.5315 16.0912 29.8845 16.5927 29.9927 16.7433C30.1014 16.894 30.3638 17.2637 30.576 17.5649C30.7886 17.8662 31.1985 18.4433 31.4876 18.8474C31.7763 19.2516 32.0069 19.5986 31.9998 19.6185C31.9932 19.6385 31.5174 20.0473 30.9435 20.527C29.8005 21.482 28.0821 22.9194 27.1666 23.687C26.845 23.9566 26.1833 24.509 25.6957 24.9147C24.8042 25.6565 22.912 27.2414 21.9404 28.0599ZM15.9411 28.2124C16.0952 28.2512 16.6848 28.261 18.5236 28.2543C19.8341 28.2496 20.9065 28.2324 20.9065 28.2164C20.9065 28.2003 20.8723 28.187 20.8308 28.187C20.7253 28.187 20.2671 27.9429 20.0063 27.748C19.068 27.0462 17.7411 25.347 15.9042 22.4945C15.7795 22.3009 15.3417 21.6228 14.9318 20.9883C14.522 20.3537 13.9716 19.4996 13.7088 19.0908C13.2546 18.3834 11.4766 15.6236 10.6054 14.2735C10.3815 13.9264 10.1983 13.6225 10.1983 13.5978C10.1983 13.5505 10.2614 13.446 10.6584 12.8369C10.7968 12.6248 10.9188 12.428 10.9302 12.3991C10.949 12.349 10.756 12.0681 10.7031 12.0681C10.6894 12.0681 10.5231 12.3103 10.3336 12.606C9.27063 14.2664 6.66301 18.3106 6.29116 18.8756L6.02091 19.2864L6.00835 19.0516C5.97462 18.4186 6.03424 7.77308 6.07464 7.25587C6.18761 5.80047 6.33274 4.94953 6.54533 4.49609C6.67242 4.22535 6.89717 3.95579 7.07094 3.8662C7.13369 3.83372 7.17488 3.79695 7.16233 3.78404C7.14938 3.77152 5.71025 3.75978 3.9636 3.75782C0.972366 3.75469 0.795466 3.75822 0.915491 3.81964C1.09984 3.91393 1.36461 4.21596 1.476 4.45853C1.77411 5.10837 1.91845 6.25548 2.00239 8.64476C2.06005 10.2782 2.02946 23.0692 1.96591 23.9812C1.86511 25.4288 1.76469 26.2304 1.62035 26.7394C1.47522 27.2512 1.17633 27.6745 0.858616 27.8173C0.774677 27.8549 0.706035 27.901 0.706035 27.919C0.706035 27.957 7.26941 27.9652 7.30785 27.9272C7.32158 27.9135 7.25804 27.8654 7.16704 27.8204C6.93287 27.705 6.6987 27.4574 6.57279 27.1917C6.19388 26.3924 6.00365 24.4398 6.00208 21.3282L6.00129 20.045L6.99406 18.5113C7.54006 17.6682 8.02016 16.921 8.06135 16.8509C8.10253 16.7809 8.14607 16.7238 8.15823 16.7238C8.17039 16.7238 8.38534 17.045 8.63637 17.4378C8.88701 17.8306 9.39104 18.6182 9.75583 19.1886C10.121 19.759 10.6278 20.5513 10.882 20.9491C11.1361 21.347 11.4582 21.849 11.5974 22.0642C11.8457 22.4487 13.1389 24.4652 14.0364 25.8689C14.9444 27.2887 15.268 27.7782 15.37 27.8865C15.5186 28.0446 15.7112 28.1541 15.9411 28.2124ZM21.8478 27.784C21.8478 27.7934 21.9071 27.752 21.9796 27.6909C22.0522 27.6303 22.7359 27.0587 23.4996 26.4214C24.2629 25.7836 25.2211 24.9824 25.6291 24.6412C26.3406 24.045 27.6671 22.9362 30.4136 20.6412C31.2726 19.9241 31.6841 19.5563 31.6613 19.5262C31.6429 19.502 31.4782 19.2707 31.295 19.0125C31.1122 18.7543 30.7007 18.1733 30.3807 17.7214L30.3014 17.6095C29.3636 16.2856 29.0612 15.8588 29.0345 15.8752C29.0219 15.883 29.0718 15.9914 29.1455 16.1514L29.1588 16.1796C29.5793 17.0927 29.7484 18.2477 29.597 19.169C29.411 20.2989 28.8333 21.3685 27.8331 22.4358C27.2733 23.0325 25.9299 24.2183 25.8468 24.1882C25.8295 24.1819 25.2647 23.5164 24.592 22.7097C23.9197 21.903 23.2583 21.1103 23.1226 20.9491C22.9869 20.788 22.508 20.2156 22.0589 19.6776C20.4746 17.7813 18.2804 15.1608 16.9817 13.6135C16.2592 12.7527 15.3872 11.714 15.044 11.3052C14.7008 10.8963 14.3219 10.446 14.2019 10.3048C14.0819 10.1635 13.8599 9.90063 13.7088 9.72066C13.5578 9.54069 13.2225 9.14789 12.9636 8.84703C11.4264 7.0626 10.8878 6.34859 10.5599 5.66119C10.4089 5.34468 10.3536 4.96401 10.4273 4.75274C10.4513 4.68466 10.4552 4.63459 10.4364 4.64163C10.4011 4.65454 9.90331 5.10407 8.27865 6.59077C7.77305 7.05321 7.18626 7.58842 6.97444 7.77973C6.76303 7.97105 6.58966 8.13811 6.58966 8.15141C6.58966 8.16471 6.72694 8.1698 6.89482 8.16275C7.24627 8.14828 7.48201 8.21948 7.8766 8.45931C8.77719 9.00704 10.3093 10.5462 11.8767 12.4789C12.2783 12.9738 12.8016 13.6182 13.0401 13.9112C13.2785 14.2042 13.7206 14.7473 14.0226 15.1185C14.3247 15.4898 15.1346 16.4824 15.8222 17.3247C16.5098 18.1671 17.2021 19.0145 17.3602 19.2081C18.5338 20.6463 19.4862 21.8063 20.0569 22.4922C21.5435 24.2797 22.1224 25.421 22.1224 26.5642C22.1224 26.9859 22.0726 27.2578 21.9408 27.5559C21.8898 27.6718 21.8478 27.7743 21.8478 27.784ZM19.3387 23.8615C19.5324 23.9468 19.6968 23.9249 19.7603 23.8052C19.8835 23.5736 19.738 22.9194 19.4222 22.2876C19.2175 21.8775 19.1449 21.779 18.2333 20.6686C17.5979 19.8948 16.0827 18.0395 15.8858 17.7942C15.3566 17.1358 14.7726 16.4499 14.7408 16.4499C14.7169 16.4499 14.7071 16.6037 14.7153 16.8549C14.7283 17.2473 14.7345 17.2715 14.9126 17.6275C15.4257 18.6545 17.2504 21.4902 18.158 22.6706C18.4938 23.1072 19.1665 23.786 19.3387 23.8615ZM13.3527 8.2633C13.4386 8.35446 13.5206 8.41628 13.5343 8.40023C13.548 8.38419 13.6979 8.16862 13.8665 7.92097C14.5902 6.86072 15.3904 5.81925 15.9015 5.27191C16.4326 4.70305 17.0817 4.23865 17.6222 4.04108C17.747 3.9957 17.8431 3.95266 17.8364 3.94562C17.8293 3.93897 16.8272 3.98474 15.6092 4.04773C14.3913 4.11072 13.1746 4.17214 12.9047 4.18427C12.6349 4.1964 12.2909 4.21753 12.1399 4.23122L11.8653 4.25548L12.1987 4.34077C13.1373 4.58138 13.5688 5.09977 13.5712 5.98983C13.5719 6.42567 13.3409 7.36894 13.1326 7.77817C13.102 7.83803 13.0813 7.87441 13.0809 7.91119C13.0801 7.97379 13.1401 8.03756 13.3166 8.22457C13.328 8.23709 13.3401 8.24961 13.3527 8.2633ZM8.5995 12.7821C8.59166 13.8955 8.59362 14.8067 8.60382 14.8067C8.61401 14.8067 8.78935 14.5469 8.99292 14.2297C9.19688 13.9124 9.56285 13.3443 9.80604 12.9679C10.0496 12.5915 10.3265 12.1561 10.4219 12.0004C10.5176 11.8447 10.6152 11.7054 10.6395 11.6905C10.6815 11.6643 10.8247 11.8059 11.1275 12.1733C11.1773 12.2332 11.2138 12.2676 11.226 12.3095C11.2503 12.3924 11.1773 12.5039 10.9145 12.9049C10.8843 12.9511 10.8518 13.0012 10.8161 13.0556L10.465 13.5931L10.6192 13.8357C10.7035 13.9691 10.789 14.0833 10.809 14.0892C10.8404 14.0982 11.0059 13.8505 11.6229 12.8713L11.7335 12.696L11.4087 12.2938C10.4885 11.1549 9.85075 10.4812 9.55147 10.3314C9.09059 10.1009 8.80778 10.1721 8.68226 10.5501C8.62147 10.7344 8.61205 10.9828 8.5995 12.7821Z" fill="#141414"/>
</svg>
