<svg width="128" height="128" viewBox="0 0 128 128" fill="none" xmlns="http://www.w3.org/2000/svg">
<path d="M87.7617 112.239L85.6718 114L74.882 113.986C66.5477 113.975 63.9228 113.926 63.3517 113.768C61.6996 113.315 60.6468 112.39 59.2363 110.147C58.8095 109.469 58.0957 108.351 57.6501 107.662C57.2045 106.973 55.6889 104.615 54.2815 102.419C52.8757 100.224 50.5254 96.5634 49.06 94.2817C47.5946 92 45.6757 89.0078 44.7955 87.6307C43.9154 86.2535 42.0655 83.3646 40.6849 81.2113C39.3042 79.0563 38.0914 77.1377 37.9878 76.9468C37.8858 76.7543 37.7399 76.5978 37.6646 76.5978C37.5893 76.5978 36.8142 77.6995 35.9434 79.047L34.3604 81.4977L34.3635 87.3803C34.3713 100.748 35.0413 107.57 36.6605 110.762C37.3084 112.038 37.2347 112.085 34.5 112.147C32.4509 112.194 32.1214 112.236 31.9881 112.474C31.8437 112.732 30.9133 112.748 15.9172 112.748H0V111.045L0.745259 110.953C2.98731 110.676 4.05107 109.966 4.94381 108.152C5.60121 106.818 6.00757 105.017 6.34176 101.95C7.13409 94.7042 7.25804 88.3271 7.17331 58.8357C7.09957 33.6604 7.04622 30.9765 6.50022 25.5023C5.75967 18.0673 4.42448 15.7214 0.933534 15.7214H0.313793V14H31.8657L31.8186 14.8216L31.7716 15.6432L30.7972 15.7496C29.0212 15.9452 27.9276 16.6917 27.129 18.252C26.2802 19.9124 25.5114 24.7606 25.3106 29.7214L25.2086 32.2191L27.9417 29.7246C31.6052 26.3787 37.412 21.0814 39.9804 18.7387C42.1973 16.7167 42.4703 16.5665 44.6371 16.1721C45.34 16.0438 55.441 15.5196 69.8974 14.8576C72.7451 14.7277 77.3343 14.4898 80.0957 14.3302C82.8571 14.169 85.1242 14.0469 85.1336 14.0579C85.1431 14.0689 85.1917 14.4429 85.2419 14.8873L85.3345 15.6964L84.2535 16.0235C82.6421 16.5117 79.9639 17.9186 78.3698 19.1142C74.733 21.8435 70.423 26.7559 66.1445 33.0501L64.3119 35.7449C64.3119 35.7449 67.6554 39.7449 71.7425 44.6307C75.8297 49.5164 80.557 55.1581 80.557 55.1581C80.557 55.1581 83.4721 58.6322 85.3455 60.8701C87.2188 63.108 89.3479 65.6432 90.0759 66.5039C90.8039 67.3646 92.8781 69.8294 94.6839 71.9812C103.04 81.9374 104.357 83.4726 105.108 84.1471C107.855 86.6103 110.877 86.0423 114.535 82.374C115.878 81.0266 116.569 79.8576 117.029 78.1565C118.443 72.9374 117.34 67.2692 113.763 61.3599C113.325 60.6369 112.966 59.9671 112.966 59.8732C112.966 59.615 114.213 58.8404 114.359 59.0063C114.429 59.0845 115.542 60.662 116.835 62.5133C118.126 64.3646 119.538 66.3709 119.971 66.9734C120.406 67.5759 121.455 69.0548 122.304 70.2598C123.154 71.4648 124.794 73.7731 125.95 75.3897C127.105 77.0063 128.028 78.3944 127.999 78.4742C127.973 78.554 126.07 80.1894 123.774 82.108C119.202 85.928 112.329 91.6776 108.667 94.748C107.38 95.8263 104.733 98.036 102.783 99.6588C99.2167 102.626 91.648 108.966 87.7617 112.239ZM63.7643 112.85C64.3809 113.005 66.7391 113.044 74.0944 113.017C79.3363 112.998 83.6259 112.93 83.6259 112.865C83.6259 112.801 83.4894 112.748 83.3231 112.748C82.901 112.748 81.0685 111.772 80.0251 110.992C76.2721 108.185 70.9643 101.388 63.6169 89.9781C63.1179 89.2034 61.367 86.4914 59.7274 83.9531C58.0878 81.4147 55.8866 77.9984 54.8354 76.3631C53.0185 73.5336 45.9064 62.4945 42.4217 57.0939C41.5258 55.7058 40.7931 54.4898 40.7931 54.3912C40.7931 54.2019 41.0457 53.784 42.6335 51.3474C43.1874 50.4992 43.6753 49.712 43.7208 49.5962C43.7961 49.3959 43.0242 48.2723 42.8124 48.2723C42.7575 48.2723 42.0922 49.241 41.3344 50.4241C37.0825 57.0657 26.652 73.2426 25.1646 75.5023L24.0836 77.1455L24.0334 76.2066C23.8985 73.6745 24.137 31.0923 24.2986 29.0235C24.7504 23.2019 25.331 19.7981 26.1813 17.9843C26.6897 16.9014 27.5887 15.8232 28.2837 15.4648C28.5348 15.3349 28.6995 15.1878 28.6493 15.1361C28.5975 15.0861 22.841 15.0391 15.8544 15.0313C3.88946 15.0188 3.18186 15.0329 3.66197 15.2786C4.39938 15.6557 5.45843 16.8638 5.90402 17.8341C7.09643 20.4335 7.67381 25.0219 8.00957 34.579C8.24021 41.1127 8.11783 92.277 7.86366 95.9249C7.46043 101.715 7.05878 104.922 6.4814 106.958C5.90088 109.005 4.70533 110.698 3.43447 111.269C3.09871 111.419 2.82414 111.604 2.82414 111.676C2.82414 111.828 29.0776 111.861 29.2314 111.709C29.2863 111.654 29.0321 111.462 28.6681 111.282C27.7315 110.82 26.7948 109.829 26.2912 108.767C24.7755 105.57 24.0146 97.759 24.0083 85.313L24.0052 80.18L27.9762 74.0454C30.1602 70.6729 32.0806 67.6839 32.2454 67.4038C32.4101 67.1236 32.5843 66.8952 32.6329 66.8952C32.6816 66.8952 33.5413 68.18 34.5455 69.7512C35.5481 71.3224 37.5642 74.4726 39.0233 76.7543C40.484 79.036 42.5111 82.205 43.5278 83.7966C44.5445 85.3881 45.8326 87.3959 46.3896 88.2567C47.3828 89.795 52.5556 97.8607 56.1454 103.476C59.7776 109.155 61.072 111.113 61.4799 111.546C62.0746 112.178 62.8449 112.617 63.7643 112.85ZM87.3914 111.136C87.3914 111.174 87.6283 111.008 87.9186 110.764C88.2088 110.521 90.9435 108.235 93.9983 105.685C97.0515 103.135 100.885 99.9296 102.516 98.5649C105.362 96.18 110.669 91.7449 121.654 82.5649C125.091 79.6964 126.736 78.2254 126.645 78.1049C126.572 78.0078 125.913 77.0829 125.18 76.0501C124.449 75.0172 122.803 72.6933 121.523 70.8858L121.206 70.4382C117.454 65.1424 116.245 63.4351 116.138 63.5008C116.088 63.5321 116.287 63.9656 116.582 64.6056L116.635 64.7183C118.317 68.3709 118.994 72.9906 118.388 76.6761C117.644 81.1956 115.333 85.4742 111.332 89.7434C109.093 92.1299 103.72 96.8732 103.387 96.7527C103.318 96.7277 101.059 94.0657 98.3679 90.8388C95.6787 87.6119 93.0334 84.4413 92.4905 83.7966C91.9477 83.1518 90.032 80.8623 88.2355 78.7105C81.8984 71.1252 73.1216 60.6432 67.9268 54.4538C65.0368 51.011 61.549 46.856 60.1761 45.2207C58.8033 43.5853 57.2876 41.784 56.8075 41.2191C56.3274 40.6541 55.4394 39.6025 54.8354 38.8826C54.2313 38.1628 52.8898 36.5916 51.8543 35.3881C45.7055 28.2504 43.5514 25.3944 42.2397 22.6448C41.6356 21.3787 41.4144 19.856 41.7094 19.011C41.8051 18.7387 41.8208 18.5383 41.7455 18.5665C41.6043 18.6182 39.6132 20.4163 33.1146 26.3631C31.0922 28.2128 28.745 30.3537 27.8978 31.1189C27.0521 31.8842 26.3586 32.5524 26.3586 32.6056C26.3586 32.6588 26.9078 32.6792 27.5793 32.651C28.9851 32.5931 29.928 32.8779 31.5064 33.8372C35.1087 36.0282 41.2371 42.1847 47.5067 49.9155C49.1133 51.8951 51.2063 54.4726 52.1603 55.6448C53.1142 56.8169 54.8824 58.989 56.0905 60.4742C57.2986 61.9593 60.5385 65.9296 63.2889 69.2989C66.0393 72.6682 68.8086 76.0579 69.4409 76.8326C74.1352 82.5853 77.9447 87.2254 80.2275 89.9687C86.1739 97.1189 88.4897 101.684 88.4897 106.257C88.4897 107.944 88.2904 109.031 87.7632 110.224C87.5593 110.687 87.3914 111.097 87.3914 111.136ZM77.3547 95.446C78.1298 95.7872 78.7872 95.6995 79.0414 95.2207C79.534 94.2942 78.9519 91.6776 77.6889 89.1502C76.8699 87.5102 76.5796 87.1158 72.9334 82.6745C70.3916 79.579 64.3307 72.1581 63.5431 71.1768C61.4266 68.543 59.0904 65.7997 58.9633 65.7997C58.8676 65.7997 58.8284 66.4147 58.8613 67.4194C58.9131 68.989 58.9382 69.0861 59.6505 70.5102C61.7027 74.6182 69.0015 85.9609 72.6321 90.6823C73.9752 92.4288 76.6659 95.144 77.3547 95.446ZM53.4107 33.0532C53.7543 33.4178 54.0822 33.6651 54.1372 33.6009C54.1921 33.5368 54.7914 32.6745 55.4661 31.6839C58.3608 27.4429 61.5615 23.277 63.6059 21.0876C65.7303 18.8122 68.3269 16.9546 70.4889 16.1643C70.9879 15.9828 71.3722 15.8106 71.3456 15.7825C71.3173 15.7559 67.3086 15.939 62.437 16.1909C57.5654 16.4429 52.6984 16.6886 51.619 16.7371C50.5395 16.7856 49.1635 16.8701 48.5595 16.9249L47.4612 17.0219L48.7948 17.3631C52.5494 18.3255 54.2752 20.3991 54.2846 23.9593C54.2878 25.7027 53.3637 29.4757 52.5305 31.1127C52.4082 31.3521 52.325 31.4977 52.3234 31.6448C52.3203 31.8951 52.5604 32.1502 53.2664 32.8983C53.3119 32.9484 53.3605 32.9984 53.4107 33.0532ZM34.398 51.1283C34.3666 55.5822 34.3745 59.2269 34.4153 59.2269C34.4561 59.2269 35.1574 58.1878 35.9717 56.9186C36.7875 55.6495 38.2514 53.3772 39.2241 51.8717C40.1985 50.3662 41.3062 48.6244 41.6874 48.0016C42.0702 47.3787 42.4609 46.8216 42.5582 46.7621C42.7261 46.6573 43.2987 47.2238 44.51 48.6933C44.7092 48.9327 44.8552 49.0704 44.9038 49.2379C45.0011 49.5696 44.7092 50.0157 43.658 51.6197C43.5372 51.8044 43.407 52.0047 43.2642 52.2222L41.86 54.3725L42.4766 55.3427C42.8139 55.8764 43.156 56.3333 43.236 56.3568C43.3615 56.3928 44.0236 55.4022 46.4916 51.4851L46.934 50.784L45.6349 49.1753C41.9541 44.6197 39.403 41.9249 38.2059 41.3255C36.3624 40.4038 35.2311 40.6886 34.7291 42.2003C34.4859 42.9374 34.4482 43.9311 34.398 51.1283Z" fill="#141414"/>
</svg>
